:version 1.10
:name ASF
:units
  mass 1
  length 1
  angle deg
:documentation
  ASF file generated by Kaydara
:root
  axis xyz
  order  tx ty tz rx ry rz
  position 0 0 0
  orientation 0 0 0
:bonedata
  begin
    id 1
    name SpineDummy
    direction 0.999998 -0.00179978 1.38929e-006
    length 3.60008
    axis 0 0 0 xyz
  end
  begin
    id 2
    name Spine
    direction 0.964365 0.262802 0.0305839
    length 8.13928
    axis 1.33928 -1.75354 15.2838 xyz
    dof rx ry rz
  end
  begin
    id 3
    name Spine1
    direction 0.811168 0.572065 0.12144
    length 7.14954
    axis 2.2224 -6.9761 35.2157 xyz
    dof rx ry rz
  end
  begin
    id 4
    name Neck
    direction 0 0 0
    length 0
    axis 2.2224 -6.9761 35.2157 xyz
    dof rx ry rz
  end
  begin
    id 5
    name HeadDummy
    direction 0.810939 0.572387 0.121455
    length 3.55534
    axis 2.2224 -6.9761 35.2157 xyz
  end
  begin
    id 6
    name Head
    direction 0.998226 -0.000232542 0.0595419
    length 7.35666
    axis -3.03688 -3.41352 -0.0133467 xyz
    dof rx ry rz
  end
  begin
    id 7
    name R_ClavicleDummy
    direction 0.531669 -0.194489 -0.824319
    length 2.49392
    axis 2.2224 -6.9761 35.2157 xyz
  end
  begin
    id 8
    name R_Clavicle
    direction -0.155119 0.0480802 -0.986725
    length 4.485
    axis -54.2764 80.6538 162.779 xyz
    dof rx ry rz
  end
  begin
    id 9
    name R_UpperArm
    direction -0.955567 0.200068 -0.216484
    length 10.1122
    axis -72.9943 12.5026 168.175 xyz
    dof rx ry rz
  end
  begin
    id 10
    name R_Forearm
    direction -0.61433 0.385743 0.688332
    length 9.39148
    axis -117.015 -43.4982 147.875 xyz
    dof rx ry rz
  end
  begin
    id 11
    name R_Hand
    direction -0.699429 0.0170333 0.714499
    length 3.66324
    axis -45.0303 -36.7097 175.478 xyz
    dof rx ry rz
  end
  begin
    id 12
    name L_ClavicleDummy
    direction 0.40287 -0.36502 0.839319
    length 2.49392
    axis 2.2224 -6.9761 35.2157 xyz
  end
  begin
    id 13
    name L_Clavicle
    direction -0.231271 -0.0726419 0.970174
    length 4.485
    axis 18.4357 -75.9711 -162.563 xyz
    dof rx ry rz
  end
  begin
    id 14
    name L_UpperArm
    direction -0.917494 0.144359 0.370629
    length 10.1122
    axis 56.0417 -21.7544 171.058 xyz
    dof rx ry rz
  end
  begin
    id 15
    name L_Forearm
    direction -0.496786 0.615074 -0.612281
    length 9.39148
    axis 89.8094 37.7546 128.927 xyz
    dof rx ry rz
  end
  begin
    id 16
    name L_Hand
    direction -0.409932 0.64962 -0.640274
    length 3.66324
    axis -0.424369 32.133 128.52 xyz
    dof rx ry rz
  end
  begin
    id 17
    name L_ThighDummy
    direction -1.84081e-006 1.87549e-006 1
    length 3.13049
    axis 0 0 0 xyz
  end
  begin
    id 18
    name L_Thigh
    direction -0.947739 0.307978 0.083308
    length 17.9961
    axis 173.219 -4.77873 161.998 xyz
    dof rx ry rz
  end
  begin
    id 19
    name L_Calf
    direction -0.728814 -0.684427 0.0197583
    length 13.3367
    axis 167.331 -1.13214 -136.799 xyz
    dof rx ry rz
  end
  begin
    id 20
    name L_Foot
    direction -0.9028 0.418719 0.0981191
    length 5.8674
    axis 163.436 11.5135 -155.37 xyz
    dof rx ry rz
  end
  begin
    id 21
    name L_Toe0
    direction -0.35341 0.886259 0.299411
    length 4.75286
    axis 169.316 -17.4222 111.74 xyz
    dof rx ry rz
  end
  begin
    id 22
    name R_ThighDummy
    direction 9.32778e-007 -8.82053e-007 -1
    length 3.13049
    axis 0 0 0 xyz
  end
  begin
    id 23
    name R_Thigh
    direction -0.925064 0.37528 -0.0585023
    length 17.9961
    axis -178.698 3.35385 157.919 xyz
    dof rx ry rz
  end
  begin
    id 24
    name R_Calf
    direction -0.68969 -0.718776 -0.0876886
    length 13.3367
    axis -160.504 5.03065 -133.817 xyz
    dof rx ry rz
  end
  begin
    id 25
    name R_Foot
    direction -0.857405 0.418858 -0.299022
    length 5.8674
    axis -161.328 4.38911 -154.413 xyz
    dof rx ry rz
  end
  begin
    id 26
    name R_Toe0
    direction -0.100745 0.952789 -0.286433
    length 4.75286
    axis 171.683 16.6445 96.0359 xyz
    dof rx ry rz
  end
:hierarchy
  begin
    root SpineDummy L_ThighDummy R_ThighDummy
    SpineDummy Spine
    Spine Spine1
    Spine1 Neck
    Neck HeadDummy R_ClavicleDummy L_ClavicleDummy
    HeadDummy Head
    R_ClavicleDummy R_Clavicle
    R_Clavicle R_UpperArm
    R_UpperArm R_Forearm
    R_Forearm R_Hand
    L_ClavicleDummy L_Clavicle
    L_Clavicle L_UpperArm
    L_UpperArm L_Forearm
    L_Forearm L_Hand
    L_ThighDummy L_Thigh
    L_Thigh L_Calf
    L_Calf L_Foot
    L_Foot L_Toe0
    R_ThighDummy R_Thigh
    R_Thigh R_Calf
    R_Calf R_Foot
    R_Foot R_Toe0
  end

:SAMPLES-PER-SECOND 30
:FULLY-SPECIFIED
:DEGREES
160
root  -3.59423 30.0293 7.5446 -119.001 -0.0847297 91.8156
Spine  -1.31873 4.7046 4.35413
Spine1  -3.19771 5.55473 -8.86838
Neck  3.97569e-016 0 -2.38542e-015
Head  30.6644 -0.590886 18.9666
R_Clavicle  -0.690017 4.41015 -2.61099
R_UpperArm  9.58053 18.5533 -19.1218
R_Forearm  -8.52148 -9.24505 7.74519
R_Hand  1.22739 5.187 2.45734
L_Clavicle  0.0371024 -3.38217 0.337064
L_UpperArm  26.0826 -39.843 -40.1138
L_Forearm  34.6121 -0.42518 -0.391723
L_Hand  3.51396 12.5685 22.198
L_Thigh  -11.2401 -7.45165 20.2332
L_Calf  -5.49318 -0.128214 0.763413
L_Foot  5.88526 10.5249 10.9989
L_Toe0  0.505156 0.034446 -6.1361
R_Thigh  -0.221766 5.2544 -2.30309
R_Calf  -19.5456 -2.2616 -6.99756
R_Foot  3.24469 11.3147 7.09058
R_Toe0  -15.8553 3.58287 -3.35819
161
root  -3.27758 29.8012 8.87631 -118.394 4.41881 91.6815
Spine  0.732375 6.25781 5.86486
Spine1  -1.478 0.616261 -13.9612
Neck  3.97569e-016 0 -2.38542e-015
Head  26.3901 2.75411 17.2624
R_Clavicle  -0.98022 8.75482 -3.07065
R_UpperArm  6.12964 22.5818 -25.4877
R_Forearm  -10.1786 -13.5253 11.501
R_Hand  1.15164 6.87647 -0.989912
L_Clavicle  -0.125479 -6.55824 1.49694
L_UpperArm  34.5773 -40.8832 -52.1177
L_Forearm  29.4195 4.38066 5.17842
L_Hand  2.91358 12.0091 19.0667
L_Thigh  -19.4403 -4.65517 27.0181
L_Calf  -10.0531 -1.59118 11.5597
L_Foot  6.00783 14.3605 7.59279
L_Toe0  0.505156 0.034446 -6.1361
R_Thigh  5.15302 7.71091 -5.22442
R_Calf  -14.8597 -0.0384294 -0.0824032
R_Foot  -0.341339 3.36324 14.3906
R_Toe0  -8.88464 2.26595 -3.13083
162
root  -2.94392 29.334 10.1277 -118.795 8.21807 92.1776
Spine  2.73561 7.68371 7.18734
Spine1  0.549813 -4.15242 -16.1205
Neck  3.97569e-016 0 -2.38542e-015
Head  21.9228 6.14806 11.9426
R_Clavicle  -1.02993 14.8168 -2.48364
R_UpperArm  3.52365 28.622 -33.779
R_Forearm  -8.24712 -17.8668 15.5879
R_Hand  0.651348 8.38995 -6.56004
L_Clavicle  -0.341585 -10.785 2.70612
L_UpperArm  41.4876 -42.3089 -64.0729
L_Forearm  24.491 9.15572 10.8364
L_Hand  2.31519 12.04 15.2012
L_Thigh  -26.5358 -2.3698 32.5736
L_Calf  -11.1632 -2.25905 16.62
L_Foot  8.24293 21.9546 7.36869
L_Toe0  0.505156 0.034446 -6.1361
R_Thigh  5.56018 12.3868 -5.77657
R_Calf  -11.1053 2.04803 6.39499
R_Foot  -3.776 -1.283 25.1854
R_Toe0  -3.65038 0.0195377 -12.4923
163
root  -2.69407 28.8339 11.1215 -118.687 9.55871 92.3504
Spine  3.38332 7.34307 7.02611
Spine1  1.8679 -6.71446 -12.8375
Neck  3.97569e-016 0 -2.38542e-015
Head  17.8075 9.16427 3.8627
R_Clavicle  0.0370292 21.6891 1.1296
R_UpperArm  2.87181 35.4633 -43.4283
R_Forearm  -6.36353 -23.0995 20.0084
R_Hand  0.00252854 8.40536 -11.3972
L_Clavicle  -0.765805 -14.2739 4.46242
L_UpperArm  46.1522 -43.5299 -75.3152
L_Forearm  22.0974 14.0458 16.9133
L_Hand  1.59789 11.908 10.7195
L_Thigh  -25.1487 -2.95348 35.7747
L_Calf  -11.3041 -2.32132 17.176
L_Foot  10.0261 25.8545 8.76342
L_Toe0  0.505156 0.034446 -6.1361
R_Thigh  3.26038 15.9782 -3.63589
R_Calf  -8.70305 2.16799 6.75257
R_Foot  -3.94821 -0.0834182 30.5367
R_Toe0  -1.59123 -0.31509 -17.8428
164
root  -2.40837 28.2674 11.4678 -115.823 8.16943 92.149
Spine  2.43936 5.16717 5.90605
Spine1  1.48236 -5.44446 -8.27439
Neck  3.97569e-016 0 -2.38542e-015
Head  14.9335 10.9082 -0.798451
R_Clavicle  1.39935 24.6498 4.65576
R_UpperArm  8.63395 38.6181 -48.7989
R_Forearm  -8.46036 -28.4763 22.1819
R_Hand  -0.391981 7.35499 -13.9169
L_Clavicle  -0.68467 -14.2082 4.0702
L_UpperArm  43.5618 -42.1591 -78.7317
L_Forearm  18.8732 17.9975 22.1675
L_Hand  0.63124 9.91168 4.9833
L_Thigh  -22.4109 -5.68713 36.5073
L_Calf  -15.2488 -2.01575 14.8984
L_Foot  12.3096 28.3114 12.0336
L_Toe0  0.505156 0.034446 -6.1361
R_Thigh  3.66567 16.9682 -2.17581
R_Calf  -3.32351 0.747641 2.35526
R_Foot  -3.29777 1.29252 31.924
R_Toe0  -1.7652 -0.265164 -17.0833
165
root  -2.06419 27.7087 11.0251 -109.933 4.91631 91.2785
Spine  0.54634 2.29655 4.97997
Spine1  -0.203602 -1.89751 -7.16543
Neck  3.97569e-016 0 -2.38542e-015
Head  12.7258 11.082 3.16352
R_Clavicle  0.574329 21.5161 2.40806
R_UpperArm  15.1348 35.0994 -43.0442
R_Forearm  -4.68597 -28.4596 22.262
R_Hand  -0.514582 6.95403 -14.7205
L_Clavicle  0.165466 -10.4043 0.503277
L_UpperArm  30.0936 -36.6098 -69.4521
L_Forearm  10.5651 19.3895 24.118
L_Hand  -0.169397 7.22199 -1.3517
L_Thigh  -26.4033 -8.12306 34.5983
L_Calf  -21.8178 -1.53803 11.2236
L_Foot  13.6411 27.363 15.6194
L_Toe0  0.505156 0.034446 -6.1361
R_Thigh  5.9096 15.4856 -4.2915
R_Calf  3.46175 -0.355004 -1.10869
R_Foot  -2.28645 3.14792 33.3248
R_Toe0  -1.55217 -0.202166 -14.9078
166
root  -1.79873 27.2117 9.96014 -103.224 0.875152 89.4879
Spine  -1.34297 -0.0453721 3.32858
Spine1  -2.0504 1.05674 -7.80025
Neck  3.97569e-016 0 -2.38542e-015
Head  9.6997 9.84784 13.8161
R_Clavicle  -0.696458 13.5992 -1.45999
R_UpperArm  16.9228 26.0567 -27.9133
R_Forearm  10.1123 -22.7941 19.819
R_Hand  -0.640675 6.23099 -15.4368
L_Clavicle  0.720461 -3.17637 -3.71349
L_UpperArm  12.6018 -26.722 -53.3261
L_Forearm  -2.88767 17.9876 22.1497
L_Hand  -0.694558 6.57701 -6.40348
L_Thigh  -33.8252 -9.4442 30.4451
L_Calf  -27.354 -0.843668 6.01732
L_Foot  12.9713 22.0446 18.6836
L_Toe0  0.505156 0.034446 -6.1361
R_Thigh  7.22437 13.1404 -8.00138
R_Calf  7.54777 -1.76016 -5.42581
R_Foot  0.0627387 6.7749 33.1793
R_Toe0  -1.11584 -0.0784029 -10.1343
167
root  -1.72434 26.7016 8.52064 -97.6443 -3.52924 87.0323
Spine  -2.52287 -2.14082 -1.35004
Spine1  -2.92376 3.13364 -4.38884
Neck  3.97569e-016 0 -2.38542e-015
Head  6.10944 7.86522 24.6497
R_Clavicle  -0.873951 2.98272 -3.54984
R_UpperArm  20.5475 15.4001 -11.4205
R_Forearm  25.4226 -17.3507 15.0882
R_Hand  -0.801591 2.8413 -15.5449
L_Clavicle  0.610191 3.04174 -5.99897
L_UpperArm  -0.472945 -15.5302 -38.5575
L_Forearm  -19.4665 15.475 18.7632
L_Hand  -0.945454 7.9812 -7.71894
L_Thigh  -39.5789 -10.5723 24.4054
L_Calf  -28.1795 -0.0101989 -0.0672027
L_Foot  11.8938 16.337 21.8164
L_Toe0  0.442643 0.0380339 -6.20118
R_Thigh  7.65153 10.7962 -12.5619
R_Calf  10.9593 -3.4046 -10.5659
R_Foot  2.34405 10.1802 30.6795
R_Toe0  -0.0135143 -0.103689 -2.70695
168
root  -1.79152 26.1391 6.88473 -93.0737 -7.83681 84.6371
Spine  -2.92547 -4.202 -9.15895
Spine1  -2.79257 5.36767 3.87614
Neck  3.97569e-016 0 -2.38542e-015
Head  3.08792 5.35639 32.0922
R_Clavicle  -0.61174 -4.4955 -4.34962
R_UpperArm  23.0725 5.73241 2.92695
R_Forearm  40.8883 -12.9265 10.9657
R_Hand  -0.904518 -1.28345 -13.4604
L_Clavicle  0.181451 7.9168 -5.59769
L_UpperArm  -6.68499 -6.69827 -26.4432
L_Forearm  -34.1954 13.0696 15.6586
L_Hand  -0.844373 10.0255 -5.94918
L_Thigh  -42.7056 -11.8221 17.8288
L_Calf  -25.3395 0.823739 -6.21683
L_Foot  11.6184 13.7711 24.052
L_Toe0  1.13515 -0.000412151 -5.75862
R_Thigh  9.41933 8.42992 -17.8565
R_Calf  14.277 -4.96309 -15.5341
R_Foot  3.99485 12.8337 27.0135
R_Toe0  3.00831 -1.04802 4.2024
169
root  -1.89926 25.5152 5.23728 -88.8817 -10.9405 83.0148
Spine  -2.93445 -5.03118 -17.6336
Spine1  -2.23519 7.21088 11.5411
Neck  3.97569e-016 0 -2.38542e-015
Head  0.0364013 2.68031 37.3951
R_Clavicle  -0.0576908 -12.7148 -3.41391
R_UpperArm  24.0735 -2.79213 18.4698
R_Forearm  55.343 -7.95045 6.63576
R_Hand  -0.907996 -2.29853 -11.8082
L_Clavicle  -0.328412 13.9803 -3.77875
L_UpperArm  -4.6613 -2.15293 -14.0721
L_Forearm  -38.6589 10.3406 12.2632
L_Hand  -0.635435 10.9547 -4.17649
L_Thigh  -43.4362 -12.9617 13.6689
L_Calf  -24.7827 1.73994 -13.1208
L_Foot  13.716 16.585 26.1541
L_Toe0  2.60052 -0.0977195 -1.61484
R_Thigh  12.985 6.96372 -23.612
R_Calf  17.4911 -5.69047 -17.8926
R_Foot  4.83843 14.3199 25.7564
R_Toe0  6.89783 -2.75962 5.82612
